# Blender v2.91.0 OBJ File: 'X_CPTObject.blend'
# www.blender.org
mtllib X_Obj.mtl
o X_sign_Cube.002
v -0.275780 10.275822 1.000000
v -0.275780 10.843511 0.400000
v 0.275780 10.723092 0.347282
v 0.275780 10.225943 0.872728
v -0.275780 10.843511 -0.400000
v -0.275780 10.275822 -1.000000
v 0.275780 10.225943 -0.872728
v 0.275780 10.723092 -0.347282
v -0.275780 9.518904 -1.000000
v -0.275780 8.951215 -0.400000
v 0.275780 9.071633 -0.347282
v 0.275780 9.568783 -0.872728
v -0.275780 8.951215 0.400000
v -0.275780 9.518904 1.000000
v 0.275780 9.568783 0.872728
v 0.275780 9.071633 0.347282
v 0.275780 10.275822 1.000000
v 0.275780 10.843511 0.400000
v 0.275780 10.843511 -0.400000
v 0.275780 10.275822 -1.000000
v 0.275780 9.518904 -1.000000
v 0.275780 8.951215 -0.400000
v 0.275780 8.951215 0.400000
v 0.275780 9.518904 1.000000
v 0.186836 10.225943 0.872728
v 0.186836 10.723092 0.347282
v 0.186836 10.723092 -0.347282
v 0.186836 10.225943 -0.872728
v 0.186836 9.568783 -0.872728
v 0.186836 9.071633 -0.347282
v 0.186836 9.071633 0.347282
v 0.186836 9.568783 0.872728
v 0.000000 1.325505 -0.179318
v 0.000000 9.127584 -0.179318
v 0.034983 1.325505 -0.175872
v 0.034983 9.127584 -0.175872
v 0.068622 1.325505 -0.165668
v 0.068622 9.127584 -0.165668
v 0.099624 1.325505 -0.149097
v 0.099624 9.127584 -0.149097
v 0.126797 1.325505 -0.126797
v 0.126797 9.127584 -0.126797
v 0.149097 1.325505 -0.099624
v 0.149097 9.127584 -0.099624
v 0.165668 1.325505 -0.068622
v 0.165668 9.127584 -0.068622
v 0.175872 1.325505 -0.034983
v 0.175872 9.127584 -0.034983
v 0.179318 1.325505 -0.000000
v 0.179318 9.127584 -0.000000
v 0.175872 1.325505 0.034983
v 0.175872 9.127584 0.034983
v 0.165668 1.325505 0.068622
v 0.165668 9.127584 0.068622
v 0.149097 1.325505 0.099624
v 0.149097 9.127584 0.099624
v 0.126797 1.325505 0.126797
v 0.126797 9.127584 0.126797
v 0.099624 1.325505 0.149097
v 0.099624 9.127584 0.149097
v 0.068622 1.325505 0.165668
v 0.068622 9.127584 0.165668
v 0.034983 1.325505 0.175872
v 0.034983 9.127584 0.175872
v -0.000000 1.325505 0.179318
v -0.000000 9.127584 0.179318
v -0.034983 1.325505 0.175872
v -0.034983 9.127584 0.175872
v -0.068622 1.325505 0.165668
v -0.068622 9.127584 0.165668
v -0.099624 1.325505 0.149097
v -0.099624 9.127584 0.149097
v -0.126797 1.325505 0.126797
v -0.126797 9.127584 0.126797
v -0.149097 1.325505 0.099623
v -0.149097 9.127584 0.099623
v -0.165668 1.325505 0.068622
v -0.165668 9.127584 0.068622
v -0.175872 1.325505 0.034983
v -0.175872 9.127584 0.034983
v -0.179318 1.325505 -0.000000
v -0.179318 9.127584 -0.000000
v -0.175872 1.325505 -0.034983
v -0.175872 9.127584 -0.034983
v -0.165668 1.325505 -0.068622
v -0.165668 9.127584 -0.068622
v -0.149097 1.325505 -0.099624
v -0.149097 9.127584 -0.099624
v -0.126797 1.325505 -0.126797
v -0.126797 9.127584 -0.126797
v -0.099623 1.325505 -0.149097
v -0.099623 9.127584 -0.149097
v -0.068622 1.325505 -0.165668
v -0.068622 9.127584 -0.165668
v -0.034983 1.325505 -0.175872
v -0.034983 9.127584 -0.175872
v 0.190896 10.328061 -0.366485
v 0.190896 10.328061 -0.222525
v 0.190896 10.010861 0.037335
v 0.190896 10.328061 0.298415
v 0.190896 10.328061 0.443595
v 0.190896 9.926682 0.110535
v 0.190896 9.496021 0.469215
v 0.190896 9.496021 0.324035
v 0.190896 9.840061 0.037335
v 0.190896 9.496021 -0.245705
v 0.190896 9.496021 -0.389665
v 0.190896 9.926682 -0.034645
vt 0.625000 0.575000
vt 0.875000 0.575000
vt 0.875000 0.675000
vt 0.625000 0.675000
vt 0.450000 0.250000
vt 0.550000 0.250000
vt 0.550000 0.500000
vt 0.450000 0.500000
vt 0.625000 0.750000
vt 0.625000 1.000000
vt 0.550000 1.000000
vt 0.550000 0.750000
vt 0.375000 0.075000
vt 0.450000 0.000000
vt 0.550000 0.000000
vt 0.625000 0.075000
vt 0.625000 0.175000
vt 0.375000 0.175000
vt 0.625000 0.250000
vt 0.625000 0.500000
vt 0.450000 0.750000
vt 0.450000 1.000000
vt 0.375000 0.575000
vt 0.125000 0.575000
vt 0.125000 0.500000
vt 0.375000 0.500000
vt 0.390909 0.668410
vt 0.390909 0.581590
vt 0.390909 0.581590
vt 0.390909 0.668410
vt 0.125000 0.675000
vt 0.375000 0.675000
vt 0.375000 0.750000
vt 0.125000 0.750000
vt 0.543410 0.734091
vt 0.609091 0.668410
vt 0.609091 0.581590
vt 0.543410 0.515909
vt 0.456590 0.515909
vt 0.456590 0.734091
vt 0.456590 0.515909
vt 0.543410 0.515909
vt 0.609091 0.581590
vt 0.609091 0.668410
vt 0.543410 0.734091
vt 0.456590 0.734091
vt 1.000000 0.500000
vt 1.000000 1.000000
vt 0.968750 1.000000
vt 0.968750 0.500000
vt 0.937500 1.000000
vt 0.937500 0.500000
vt 0.906250 1.000000
vt 0.906250 0.500000
vt 0.875000 1.000000
vt 0.875000 0.500000
vt 0.843750 1.000000
vt 0.843750 0.500000
vt 0.812500 1.000000
vt 0.812500 0.500000
vt 0.781250 1.000000
vt 0.781250 0.500000
vt 0.750000 1.000000
vt 0.750000 0.500000
vt 0.718750 1.000000
vt 0.718750 0.500000
vt 0.687500 1.000000
vt 0.687500 0.500000
vt 0.656250 1.000000
vt 0.656250 0.500000
vt 0.625000 1.000000
vt 0.625000 0.500000
vt 0.593750 1.000000
vt 0.593750 0.500000
vt 0.562500 1.000000
vt 0.562500 0.500000
vt 0.531250 1.000000
vt 0.531250 0.500000
vt 0.500000 1.000000
vt 0.500000 0.500000
vt 0.468750 1.000000
vt 0.468750 0.500000
vt 0.437500 1.000000
vt 0.437500 0.500000
vt 0.406250 1.000000
vt 0.406250 0.500000
vt 0.375000 1.000000
vt 0.375000 0.500000
vt 0.343750 1.000000
vt 0.343750 0.500000
vt 0.312500 1.000000
vt 0.312500 0.500000
vt 0.281250 1.000000
vt 0.281250 0.500000
vt 0.250000 1.000000
vt 0.250000 0.500000
vt 0.218750 1.000000
vt 0.218750 0.500000
vt 0.187500 1.000000
vt 0.187500 0.500000
vt 0.156250 1.000000
vt 0.156250 0.500000
vt 0.125000 1.000000
vt 0.125000 0.500000
vt 0.093750 1.000000
vt 0.093750 0.500000
vt 0.062500 1.000000
vt 0.062500 0.500000
vt 0.296822 0.485388
vt 0.250000 0.490000
vt 0.203179 0.485389
vt 0.158156 0.471731
vt 0.116663 0.449553
vt 0.080295 0.419706
vt 0.050447 0.383337
vt 0.028269 0.341844
vt 0.014612 0.296822
vt 0.010000 0.250000
vt 0.014611 0.203179
vt 0.028269 0.158156
vt 0.050447 0.116663
vt 0.080294 0.080294
vt 0.116663 0.050447
vt 0.158156 0.028269
vt 0.203178 0.014612
vt 0.250000 0.010000
vt 0.296822 0.014612
vt 0.341844 0.028269
vt 0.383337 0.050447
vt 0.419706 0.080294
vt 0.449553 0.116663
vt 0.471731 0.158156
vt 0.485388 0.203178
vt 0.490000 0.250000
vt 0.485388 0.296822
vt 0.471731 0.341844
vt 0.449553 0.383337
vt 0.419706 0.419706
vt 0.383337 0.449553
vt 0.341844 0.471731
vt 0.031250 1.000000
vt 0.031250 0.500000
vt 0.000000 1.000000
vt 0.000000 0.500000
vt 0.750000 0.490000
vt 0.796822 0.485388
vt 0.841844 0.471731
vt 0.883337 0.449553
vt 0.919706 0.419706
vt 0.949553 0.383337
vt 0.971731 0.341844
vt 0.985388 0.296822
vt 0.990000 0.250000
vt 0.985388 0.203178
vt 0.971731 0.158156
vt 0.949553 0.116663
vt 0.919706 0.080294
vt 0.883337 0.050447
vt 0.841844 0.028269
vt 0.796822 0.014612
vt 0.750000 0.010000
vt 0.703178 0.014612
vt 0.658156 0.028269
vt 0.616663 0.050447
vt 0.580294 0.080294
vt 0.550447 0.116663
vt 0.528269 0.158156
vt 0.514611 0.203179
vt 0.510000 0.250000
vt 0.514612 0.296822
vt 0.528269 0.341844
vt 0.550447 0.383337
vt 0.580295 0.419706
vt 0.616663 0.449553
vt 0.658156 0.471731
vt 0.703179 0.485389
vt 0.454545 0.000000
vt 0.272727 0.000000
vt 0.363636 0.000000
vt 0.181818 0.000000
vt 0.000000 0.000000
vt 0.090909 0.000000
vt 1.000000 0.000000
vt 0.545455 0.000000
vt 0.727273 0.000000
vt 0.909091 0.000000
vt 0.636364 0.000000
vt 0.818182 0.000000
vn 0.0000 1.0000 0.0000
vn 0.0000 0.0000 -1.0000
vn 0.0000 0.7264 0.6873
vn -1.0000 0.0000 0.0000
vn 0.0000 0.7264 -0.6873
vn 0.0000 0.0000 1.0000
vn 0.0000 -0.7264 -0.6873
vn 0.0000 -0.7264 0.6873
vn 0.0000 -1.0000 0.0000
vn 1.0000 0.0000 0.0000
vn 0.0980 0.0000 -0.9952
vn 0.2903 0.0000 -0.9569
vn 0.4714 0.0000 -0.8819
vn 0.6344 0.0000 -0.7730
vn 0.7730 0.0000 -0.6344
vn 0.8819 0.0000 -0.4714
vn 0.9569 0.0000 -0.2903
vn 0.9952 0.0000 -0.0980
vn 0.9952 0.0000 0.0980
vn 0.9569 0.0000 0.2903
vn 0.8819 0.0000 0.4714
vn 0.7730 0.0000 0.6344
vn 0.6344 0.0000 0.7730
vn 0.4714 0.0000 0.8819
vn 0.2903 0.0000 0.9569
vn 0.0980 0.0000 0.9952
vn -0.0980 0.0000 0.9952
vn -0.2903 0.0000 0.9569
vn -0.4714 0.0000 0.8819
vn -0.6344 0.0000 0.7730
vn -0.7730 0.0000 0.6344
vn -0.8819 0.0000 0.4714
vn -0.9569 0.0000 0.2903
vn -0.9952 0.0000 0.0980
vn -0.9952 0.0000 -0.0980
vn -0.9569 0.0000 -0.2903
vn -0.8819 0.0000 -0.4714
vn -0.7730 0.0000 -0.6344
vn -0.6344 0.0000 -0.7730
vn -0.4714 0.0000 -0.8819
vn -0.2903 0.0000 -0.9569
vn -0.0980 0.0000 -0.9952
usemtl Material
s off
f 19/1/1 5/2/1 2/3/1 18/4/1
f 9/5/2 6/6/2 20/7/2 21/8/2
f 18/9/3 2/10/3 1/11/3 17/12/3
f 13/13/4 14/14/4 1/15/4 2/16/4 5/17/4 6/6/4 9/5/4 10/18/4
f 5/19/5 19/20/5 20/7/5 6/6/5
f 24/21/6 17/12/6 1/11/6 14/22/6
f 22/23/7 10/24/7 9/25/7 21/26/7
f 16/27/1 11/28/1 30/29/1 31/30/1
f 13/31/8 23/32/8 24/33/8 14/34/8
f 10/24/9 22/23/9 23/32/9 13/31/9
f 4/35/10 3/36/10 18/4/10 17/12/10
f 8/37/10 7/38/10 20/7/10 19/1/10
f 3/36/10 8/37/10 19/1/10 18/4/10
f 12/39/10 11/28/10 22/23/10 21/8/10
f 7/38/10 12/39/10 21/8/10 20/7/10
f 16/27/10 15/40/10 24/21/10 23/32/10
f 11/28/10 16/27/10 23/32/10 22/23/10
f 15/40/10 4/35/10 17/12/10 24/21/10
f 30/29/10 29/41/10 28/42/10 27/43/10 26/44/10 25/45/10 32/46/10 31/30/10
f 12/39/6 7/38/6 28/42/6 29/41/6
f 8/37/9 3/36/9 26/44/9 27/43/9
f 3/36/7 4/35/7 25/45/7 26/44/7
f 4/35/2 15/40/2 32/46/2 25/45/2
f 15/40/5 16/27/5 31/30/5 32/46/5
f 11/28/3 12/39/3 29/41/3 30/29/3
f 7/38/8 8/37/8 27/43/8 28/42/8
f 33/47/11 34/48/11 36/49/11 35/50/11
f 35/50/12 36/49/12 38/51/12 37/52/12
f 37/52/13 38/51/13 40/53/13 39/54/13
f 39/54/14 40/53/14 42/55/14 41/56/14
f 41/56/15 42/55/15 44/57/15 43/58/15
f 43/58/16 44/57/16 46/59/16 45/60/16
f 45/60/17 46/59/17 48/61/17 47/62/17
f 47/62/18 48/61/18 50/63/18 49/64/18
f 49/64/19 50/63/19 52/65/19 51/66/19
f 51/66/20 52/65/20 54/67/20 53/68/20
f 53/68/21 54/67/21 56/69/21 55/70/21
f 55/70/22 56/69/22 58/71/22 57/72/22
f 57/72/23 58/71/23 60/73/23 59/74/23
f 59/74/24 60/73/24 62/75/24 61/76/24
f 61/76/25 62/75/25 64/77/25 63/78/25
f 63/78/26 64/77/26 66/79/26 65/80/26
f 65/80/27 66/79/27 68/81/27 67/82/27
f 67/82/28 68/81/28 70/83/28 69/84/28
f 69/84/29 70/83/29 72/85/29 71/86/29
f 71/86/30 72/85/30 74/87/30 73/88/30
f 73/88/31 74/87/31 76/89/31 75/90/31
f 75/90/32 76/89/32 78/91/32 77/92/32
f 77/92/33 78/91/33 80/93/33 79/94/33
f 79/94/34 80/93/34 82/95/34 81/96/34
f 81/96/35 82/95/35 84/97/35 83/98/35
f 83/98/36 84/97/36 86/99/36 85/100/36
f 85/100/37 86/99/37 88/101/37 87/102/37
f 87/102/38 88/101/38 90/103/38 89/104/38
f 89/104/39 90/103/39 92/105/39 91/106/39
f 91/106/40 92/105/40 94/107/40 93/108/40
f 36/109/1 34/110/1 96/111/1 94/112/1 92/113/1 90/114/1 88/115/1 86/116/1 84/117/1 82/118/1 80/119/1 78/120/1 76/121/1 74/122/1 72/123/1 70/124/1 68/125/1 66/126/1 64/127/1 62/128/1 60/129/1 58/130/1 56/131/1 54/132/1 52/133/1 50/134/1 48/135/1 46/136/1 44/137/1 42/138/1 40/139/1 38/140/1
f 93/108/41 94/107/41 96/141/41 95/142/41
f 95/142/42 96/141/42 34/143/42 33/144/42
f 33/145/9 35/146/9 37/147/9 39/148/9 41/149/9 43/150/9 45/151/9 47/152/9 49/153/9 51/154/9 53/155/9 55/156/9 57/157/9 59/158/9 61/159/9 63/160/9 65/161/9 67/162/9 69/163/9 71/164/9 73/165/9 75/166/9 77/167/9 79/168/9 81/169/9 83/170/9 85/171/9 87/172/9 89/173/9 91/174/9 93/175/9 95/176/9
usemtl Material.001
f 102/177/10 100/178/10 101/179/10
f 102/177/10 99/180/10 100/178/10
f 99/180/10 97/181/10 98/182/10
f 99/180/10 108/183/10 97/181/10
f 102/177/10 108/183/10 99/180/10
f 103/184/10 108/183/10 102/177/10
f 103/184/10 105/185/10 108/183/10
f 105/185/10 107/186/10 108/183/10
f 103/184/10 104/187/10 105/185/10
f 106/188/10 107/186/10 105/185/10
